<svg width="280.3" height="242" xmlns="http://www.w3.org/2000/svg">

 <g>
  <title>background</title>
  <rect fill="none" id="canvas_background" height="402" width="582" y="-1" x="-1"/>
 </g>
 <g>
  <title>Layer 1</title>
  <ellipse ry="121.5" rx="140.5" id="svg_2" cy="120.450012" cx="141.150024" stroke-width="1.5" stroke="#ffffff" fill="#fff"/>
  <g id="XMLID_1_">
   <path d="m131.850616,88.041321l-12.899429,0l0,69.917358l12.07782,0c25.388062,0 37.055069,-14.061157 37.055069,-34.958679c0,-23.383469 -10.598907,-34.958679 -36.233459,-34.958679z" id="XMLID_6_"/>
   <path d="m194.704559,28.999996l-115.108978,0l-57.595573,94.000004l57.595573,94l115.108978,0l57.595581,-94l-57.595581,-94.000004zm-63.675552,151.487614l-35.904808,0l0,-114.97522l37.630211,0c34.590195,0 60.224762,15.614876 60.224762,57.48761c0,40.241318 -30.81076,57.48761 -61.950165,57.48761z" id="XMLID_9_"/>
  </g>
 </g>
</svg>